HIERARCHY
ROOT Hips
{
	OFFSET 0.000000 0.000000 0.000000
	CHANNELS 6 Xposition Yposition Zposition Zrotation Yrotation Xrotation 
	JOINT LHipJoint
	{
		OFFSET 0.000000 0.000000 0.000000
		CHANNELS 3 Zrotation Yrotation Xrotation
		JOINT LeftUpLeg
		{
			OFFSET 1.363060 -1.794630 0.839290
			CHANNELS 3 Zrotation Yrotation Xrotation
			JOINT LeftLeg
			{
				OFFSET 2.448110 -6.726130 0.000000
				CHANNELS 3 Zrotation Yrotation Xrotation
				JOINT LeftFoot
				{
					OFFSET 2.562200 -7.039590 0.000000
					CHANNELS 3 Zrotation Yrotation Xrotation
					JOINT LeftToeBase
					{
						OFFSET 0.157640 -0.433110 2.322550
						CHANNELS 3 Zrotation Yrotation Xrotation
						End Site
						{
							OFFSET 0.000000 0.000000 0.000000
						}
					}
				}
			}
		}
	}
	JOINT RHipJoint
	{
		OFFSET 0.000000 0.000000 0.000000
		CHANNELS 3 Zrotation Yrotation Xrotation
		JOINT RightUpLeg
		{
			OFFSET -1.305520 -1.794630 0.839290
			CHANNELS 3 Zrotation Yrotation Xrotation
			JOINT RightLeg
			{
				OFFSET -2.542530 -6.985550 0.000000
				CHANNELS 3 Zrotation Yrotation Xrotation
				JOINT RightFoot
				{
					OFFSET -2.568260 -7.056230 0.000000
					CHANNELS 3 Zrotation Yrotation Xrotation
					JOINT RightToeBase
					{
						OFFSET -0.164730 -0.452590 2.363150
						CHANNELS 3 Zrotation Yrotation Xrotation
						End Site
						{
							OFFSET 0.000000 0.000000 0.000000
						}
					}
				}
			}
		}
	}
	JOINT LowerBack
	{
		OFFSET 0.000000 0.000000 0.000000
		CHANNELS 3 Zrotation Yrotation Xrotation
		JOINT Spine
		{
			OFFSET 0.028270 2.035590 -0.193380
			CHANNELS 3 Zrotation Yrotation Xrotation
			JOINT Spine1
			{
				OFFSET 0.056720 2.048850 -0.042750
				CHANNELS 3 Zrotation Yrotation Xrotation
				JOINT Neck
				{
					OFFSET 0.000000 0.000000 0.000000
					CHANNELS 3 Zrotation Yrotation Xrotation
					JOINT Neck1
					{
						OFFSET -0.054170 1.746240 0.172020
						CHANNELS 3 Zrotation Yrotation Xrotation
						JOINT Head
						{
							OFFSET 0.104070 1.761360 -0.123970
							CHANNELS 3 Zrotation Yrotation Xrotation
							End Site
							{
								OFFSET 0.000000 0.000000 0.000000
							}
						}
					}
				}
				JOINT LeftShoulder
				{
					OFFSET 0.000000 0.000000 0.000000
					CHANNELS 3 Zrotation Yrotation Xrotation
					JOINT LeftArm
					{
						OFFSET 3.362410 1.200890 -0.311210
						CHANNELS 3 Zrotation Yrotation Xrotation
						JOINT LeftForeArm
						{
							OFFSET 4.983000 -0.000000 -0.000000
							CHANNELS 3 Zrotation Yrotation Xrotation
							JOINT LeftHand
							{
								OFFSET 3.483560 -0.000000 -0.000000
								CHANNELS 3 Zrotation Yrotation Xrotation
								JOINT LeftFingerBase
								{
									OFFSET 0.000000 0.000000 0.000000
									CHANNELS 3 Zrotation Yrotation Xrotation
									JOINT LeftHandIndex1
									{
										OFFSET 0.715260 -0.000000 -0.000000
										CHANNELS 3 Zrotation Yrotation Xrotation
										End Site
										{
											OFFSET 0.000000 0.000000 0.000000
										}
									}
								}
								JOINT LThumb
								{
									OFFSET 0.000000 0.000000 0.000000
									CHANNELS 3 Zrotation Yrotation Xrotation
									End Site
									{
										OFFSET 0.000000 0.000000 0.000000
									}
								}
							}
						}
					}
				}
				JOINT RightShoulder
				{
					OFFSET 0.000000 0.000000 0.000000
					CHANNELS 3 Zrotation Yrotation Xrotation
					JOINT RightArm
					{
						OFFSET -3.136600 1.374050 -0.404650
						CHANNELS 3 Zrotation Yrotation Xrotation
						JOINT RightForeArm
						{
							OFFSET -5.241900 -0.000000 -0.000000
							CHANNELS 3 Zrotation Yrotation Xrotation
							JOINT RightHand
							{
								OFFSET -3.444170 -0.000000 -0.000000
								CHANNELS 3 Zrotation Yrotation Xrotation
								JOINT RightFingerBase
								{
									OFFSET 0.000000 0.000000 0.000000
									CHANNELS 3 Zrotation Yrotation Xrotation
									JOINT RightHandIndex1
									{
										OFFSET -0.622530 -0.000000 -0.000000
										CHANNELS 3 Zrotation Yrotation Xrotation
										End Site
										{
											OFFSET 0.000000 0.000000 0.000000
										}
									}
								}
								JOINT RThumb
								{
									OFFSET 0.000000 0.000000 0.000000
									CHANNELS 3 Zrotation Yrotation Xrotation
									End Site
									{
										OFFSET 0.000000 0.000000 0.000000
									}
								}
							}
						}
					}
				}
			}
		}
	}
}
MOTION
Frames: 12
Frame Time: 0.008333
-12.367577 17.596872 9.350513 -3.588376 -3.263938 5.021745 -4.277437 -2.598983 -0.075834 -10.773700 0.230228 -10.848519 1.641793 10.443386 28.036076 1.158834 -8.225082 -13.267872 0.000000 -0.031500 -0.086700 3.349923 2.507738 -1.056970 23.598416 1.380509 -10.833838 -2.295373 -11.248539 30.265588 -1.147964 3.938855 -13.039785 -0.697300 -5.337900 14.874900 1.840230 -0.653019 2.990852 2.294767 -0.749690 -2.625409 4.498053 -0.379265 2.050039 -7.804172 -0.657954 -14.194469 2.745594 0.389593 25.007744 2.439100 -0.943300 15.964300 0.015575 -1.174432 0.408609 -89.398888 1.945129 19.378823 15.321108 -26.336040 -3.607307 0.265351 0.716376 -0.797447 19.951717 20.670699 6.956700 -7.125000 0.000000 0.000000 -8.780300 50.853800 -1.274800 1.943237 0.945278 -0.369505 83.122484 1.531776 20.799508 -14.597230 22.977051 -3.244704 0.265515 -0.140342 -8.995981 -20.488058 11.632653 -4.427600 7.125000 0.000000 0.000000 4.500700 -17.405500 2.957500 
-12.379847 17.593352 9.350815 -3.452736 -3.071469 5.000284 -4.272814 -2.609370 -0.100796 -10.863467 0.174549 -11.019193 1.700350 10.544418 28.364655 1.130623 -8.228681 -12.989603 0.001800 -0.274100 -0.753100 3.343880 2.514442 -1.054885 23.491874 1.115710 -10.932465 -2.312260 -11.270704 30.341078 -1.178428 4.147173 -13.096363 -0.747100 -5.521100 15.401000 1.696374 -0.629614 3.038610 2.312742 -0.719715 -2.579234 4.616027 -0.366379 2.125473 -7.785090 -0.616423 -14.068988 2.489845 0.477507 24.883721 2.290500 -0.921300 15.821700 0.027897 -1.179079 0.418871 -89.455054 1.876399 19.514642 15.474178 -26.545167 -3.668255 0.253701 0.721103 -0.514204 19.457773 20.993490 6.877500 -7.125000 0.000000 0.000000 -9.355000 51.098300 -1.416000 1.959937 0.927306 -0.363356 82.956765 1.633425 20.819586 -14.669412 23.076325 -3.275912 0.266718 -0.146668 -9.372396 -20.620583 12.113679 -4.639200 7.125000 0.000000 0.000000 4.424200 -16.876000 2.958200 
-12.391716 17.590737 9.353430 -4.018748 -2.889231 5.133267 -4.251070 -2.616208 -0.128033 -10.185068 0.259110 -11.466547 1.825800 10.724686 28.988908 1.134624 -8.364288 -12.885706 0.005500 -0.479300 -1.316900 3.323226 2.504863 -1.055879 24.186094 1.070306 -10.997185 -2.291641 -11.235441 30.228098 -1.168104 4.092596 -13.066512 -0.719600 -5.420800 15.112800 2.329266 -0.618854 3.000544 2.422079 -0.709656 -2.551328 4.537917 -0.350687 2.213584 -7.668904 -0.486156 -14.120002 2.221176 0.687724 24.882611 2.136900 -0.847100 15.803100 0.053416 -1.188510 0.425093 -89.479400 1.760136 19.769136 15.561541 -26.662244 -3.703515 0.257136 0.719591 -0.971255 19.765407 20.760485 6.916900 -7.125000 0.000000 0.000000 -8.985500 50.913100 -1.318200 1.993130 0.909214 -0.366449 82.817176 1.637615 21.112349 -14.817436 23.274490 -3.333558 0.267473 -0.124112 -9.752714 -20.378097 11.334885 -4.288600 7.125000 0.000000 0.000000 4.567500 -17.744000 2.967700 
-12.403483 17.590435 9.357453 -4.407583 -2.804105 5.161487 -4.230224 -2.619061 -0.151209 -9.740711 0.267413 -11.754342 1.929444 10.884702 29.533078 1.144445 -8.236702 -13.025993 0.035800 -1.222100 -3.360000 3.314704 2.497985 -1.056108 24.654839 1.078683 -11.009187 -2.294793 -11.241280 30.244646 -1.171315 4.095723 -13.115097 -0.693700 -5.324200 14.835700 2.824806 -0.558477 3.049682 2.446721 -0.626579 -2.520935 4.332514 -0.300238 2.252282 -7.558382 -0.365244 -14.115085 2.267577 0.831209 24.916419 2.161200 -0.770600 15.806300 0.052496 -1.185720 0.429347 -89.321467 1.724520 20.338739 15.662838 -26.790285 -3.744359 0.269168 0.716165 -2.077079 20.689748 20.286041 7.100000 -7.125000 0.000000 0.000000 -7.956700 50.582900 -1.100700 1.999258 0.906705 -0.366732 82.846698 1.582988 21.011430 -14.938683 23.444277 -3.383161 0.253993 -0.102738 -9.283395 -19.676306 10.454846 -3.808500 7.125000 0.000000 0.000000 5.048300 -18.757100 3.169200 
-12.420280 17.589731 9.350916 -4.290801 -2.804865 5.144274 -4.218379 -2.628759 -0.187517 -9.804173 0.173473 -12.105927 2.050039 11.085668 30.194972 1.149844 -8.126678 -13.179288 0.142600 -2.433700 -6.705800 3.321496 2.501000 -1.055781 24.589424 1.273450 -10.959263 -2.290324 -11.231942 30.222028 -1.170127 4.038580 -13.190196 -0.747500 -5.522600 15.405300 2.685282 -0.454450 3.203755 2.401518 -0.480174 -2.476727 4.330148 -0.231515 2.291334 -7.746522 -0.408655 -14.209874 2.578015 0.794867 25.007931 2.377900 -0.785800 15.905300 0.027393 -1.171659 0.427875 -89.113229 1.611531 20.964473 15.816663 -26.985591 -3.806876 0.276525 0.715577 -2.775481 21.355325 20.080235 7.273100 -7.125000 0.000000 0.000000 -7.259500 50.481200 -0.985100 1.986063 0.924327 -0.359381 82.812405 1.805529 20.769691 -14.866207 23.350808 -3.353582 0.234263 -0.094700 -8.748212 -18.743669 10.091417 -3.486500 7.125000 0.000000 0.000000 5.716600 -19.221300 3.533500 
-12.436674 17.572934 9.340053 -4.213283 -2.747699 5.081122 -4.209000 -2.636485 -0.223625 -9.791128 0.016952 -12.423215 2.191624 11.308018 30.933218 1.163648 -8.180032 -13.327536 0.373400 -3.925000 -10.865600 3.320932 2.502116 -1.053701 24.605307 1.404731 -10.848063 -2.279313 -11.216037 30.172431 -1.158041 3.853037 -13.334373 -0.761500 -5.572900 15.550100 2.524561 -0.426655 3.496879 2.408018 -0.430114 -2.436071 4.452537 -0.212688 2.264610 -7.915867 -0.399638 -14.338326 2.687950 0.866420 25.097982 2.483300 -0.775800 16.005600 0.019959 -1.173352 0.427193 -89.082528 1.486873 21.088815 16.009932 -27.231455 -3.886561 0.272571 0.719467 -2.714265 21.324976 20.284439 7.334500 -7.125000 0.000000 0.000000 -7.344500 50.684300 -1.033600 1.990818 0.934202 -0.354159 82.705856 1.986658 21.338228 -14.703155 23.117822 -3.283304 0.252638 -0.105805 -9.425445 -19.438895 10.446928 -3.757500 7.125000 0.000000 0.000000 5.217700 -18.779500 3.273800 
-12.446431 17.549700 9.338444 -4.522996 -2.505633 4.882463 -4.190276 -2.636780 -0.253900 -9.381648 -0.202838 -12.560417 2.360086 11.551615 31.757352 1.197605 -8.357314 -13.584847 0.546300 -4.735300 -13.155100 3.304551 2.497753 -1.044288 25.014174 1.091006 -10.664190 -2.266311 -11.197743 30.093321 -1.189413 4.036641 -13.455569 -0.790200 -5.674500 15.842900 2.891604 -0.479363 3.858887 2.472251 -0.479081 -2.390800 4.404345 -0.233226 2.198286 -7.888371 -0.324037 -14.354903 2.569122 0.995284 25.099653 2.424500 -0.733300 16.001300 0.026631 -1.187878 0.434865 -89.116969 1.566239 21.117683 16.293435 -27.585630 -4.002419 0.266625 0.719384 -2.754517 21.215918 20.275996 7.292200 -7.125000 0.000000 0.000000 -7.443500 50.657900 -1.042800 2.010231 0.931038 -0.351850 82.613365 1.973512 21.545298 -14.673193 23.074590 -3.271600 0.260797 -0.116993 -9.684055 -19.881184 10.884247 -4.011500 7.125000 0.000000 0.000000 4.909500 -18.270100 3.134400 
-12.456690 17.535619 9.337237 -5.231560 -2.219033 4.816912 -4.155382 -2.635478 -0.287211 -8.546411 -0.268561 -12.910197 2.558973 11.811104 32.678170 1.224717 -8.424589 -13.776449 0.743300 -5.507400 -15.361700 3.281350 2.483788 -1.036898 25.866618 0.931706 -10.562431 -2.237419 -11.146661 29.917431 -1.208422 4.247912 -13.386129 -0.887000 -6.003500 16.794700 3.716072 -0.513447 4.067739 2.569096 -0.503841 -2.367145 4.200952 -0.232336 2.151307 -7.863824 -0.259912 -14.370891 2.536028 1.095362 25.166841 2.420100 -0.699600 16.042200 0.032355 -1.197042 0.438889 -89.057629 1.601662 21.303214 16.450625 -27.772556 -4.065639 0.268492 0.716113 -3.029427 21.434695 20.080121 7.304500 -7.125000 0.000000 0.000000 -7.176600 50.494400 -0.976100 2.029908 0.932312 -0.354048 82.570080 2.002509 20.779616 -14.725179 23.156096 -3.295114 0.226588 -0.097246 -7.875052 -18.490274 9.837103 -3.350500 7.125000 0.000000 0.000000 5.899600 -19.506600 3.610000 
-12.465842 17.526668 9.335527 -5.796036 -1.920139 4.935290 -4.118621 -2.642177 -0.339297 -7.859754 -0.434436 -13.494066 2.774983 12.077744 33.659720 1.196484 -8.415139 -13.466756 0.897200 -6.037000 -16.891900 3.265968 2.471870 -1.022983 26.548144 0.824738 -10.656504 -2.190136 -11.057224 29.638314 -1.207652 4.316392 -13.282162 -0.901200 -6.049900 16.929400 4.414533 -0.529214 4.106160 2.633669 -0.514259 -2.378660 3.976296 -0.223486 2.106847 -7.758808 -0.183575 -14.366846 2.496062 1.186595 25.232898 2.392700 -0.656700 16.076700 0.038711 -1.202708 0.438345 -88.960392 1.476944 21.433020 16.484024 -27.801852 -4.075128 0.254010 0.724466 -3.005829 20.965570 20.647061 7.329400 -7.125000 0.000000 0.000000 -7.793500 50.997900 -1.157700 2.044262 0.931532 -0.359307 82.539325 1.997165 20.184906 -14.764575 23.221490 -3.313524 0.194205 -0.072940 -5.276743 -17.202839 8.459589 -2.664500 7.125000 0.000000 0.000000 6.846300 -21.058400 3.956900 
-12.472380 17.531999 9.344780 -5.807613 -1.755619 4.995894 -4.091952 -2.658872 -0.403204 -7.787181 -0.758805 -14.001653 3.003211 12.367307 34.708247 1.139303 -8.535223 -12.871794 0.649300 -5.154400 -14.349400 3.263163 2.474517 -1.001498 26.555929 0.461557 -10.696125 -2.135647 -10.953142 29.309699 -1.221661 4.523254 -13.133584 -0.860500 -5.915300 16.538900 4.584530 -0.469403 4.054195 2.607024 -0.438672 -2.358966 3.807822 -0.178057 2.166908 -7.597470 -0.190891 -14.236339 2.370812 1.129279 25.133935 2.283500 -0.660300 15.966600 0.037778 -1.197853 0.444466 -88.922586 1.383057 21.543669 16.578589 -27.917402 -4.111002 0.236494 0.731416 -2.804317 20.282114 21.216758 7.264800 -7.125000 0.000000 0.000000 -8.630100 51.464200 -1.382700 2.045023 0.921173 -0.353784 82.506665 1.986471 20.488543 -14.708789 23.154362 -3.292815 0.208535 -0.092722 -5.606755 -18.022025 9.160101 -3.034700 7.125000 0.000000 0.000000 6.242800 -20.259300 3.716700 
-12.486763 17.547588 9.354838 -5.630224 -1.824153 4.917453 -4.066988 -2.674056 -0.455991 -7.914188 -0.835798 -14.461877 3.239530 12.668879 35.789114 1.081712 -8.542811 -12.354644 0.450200 -4.304900 -11.936000 3.260054 2.478048 -0.987881 26.402666 0.365696 -10.431376 -2.076621 -10.848231 28.969860 -1.215124 4.563299 -12.980641 -0.898300 -6.040400 16.901800 4.404463 -0.351502 4.135823 2.574340 -0.281791 -2.310313 3.821539 -0.099007 2.209614 -7.431730 -0.164027 -13.948490 2.192636 1.116532 24.964114 2.139900 -0.644500 15.756200 0.040796 -1.193984 0.456135 -88.960532 1.379077 21.581415 16.732499 -28.120659 -4.177781 0.235156 0.730754 -2.674193 20.210710 21.234753 7.244100 -7.125000 0.000000 0.000000 -8.703600 51.471000 -1.396100 2.051617 0.907288 -0.342038 82.458159 2.025181 21.158913 -14.600934 23.001838 -3.247769 0.248437 -0.118184 -7.918432 -19.626498 10.436796 -3.794300 7.125000 0.000000 0.000000 5.086400 -18.769900 3.191800 
-12.507784 17.557344 9.349809 -5.887089 -1.799930 4.780657 -4.028120 -2.675827 -0.506182 -7.484897 -0.940620 -14.981917 3.512079 12.977081 36.946587 1.010849 -8.785992 -11.506546 0.294400 -3.489100 -9.643600 3.244540 2.469927 -0.981045 26.846047 0.601833 -10.060180 -2.011545 -10.738926 28.617527 -1.167155 4.181075 -12.972232 -0.909800 -6.078000 17.010900 4.520841 -0.299553 4.464853 2.633538 -0.187153 -2.276879 3.974397 -0.057790 2.149592 -7.956271 -0.357745 -14.084872 2.620908 0.951142 25.203074 2.485200 -0.761700 15.989200 0.019162 -1.180045 0.448845 -89.019476 1.404965 21.615102 16.978649 -28.419947 -4.281832 0.232657 0.731057 -2.488539 20.156774 21.305501 7.247900 -7.125000 0.000000 0.000000 -8.775400 51.533500 -1.421300 2.044230 0.935823 -0.336520 82.324770 2.127040 21.528208 -14.446476 22.785286 -3.184764 0.271672 -0.134184 -9.066743 -20.515833 11.116244 -4.243100 7.125000 0.000000 0.000000 4.462200 -17.954800 2.878100 
